<svg width="234" height="159" viewBox="0 0 234 159" fill="none" xmlns="http://www.w3.org/2000/svg">
<path opacity="0.1" fill-rule="evenodd" clip-rule="evenodd" d="M212.996 90.1137C210.082 51.4226 141.825 20.3403 69.1191 22.488C-3.58729 24.6357 69.5828 68.9884 24.6873 69.051C-20.2083 69.1135 48.7434 137.086 126.825 124.714C204.908 112.341 215.909 128.805 212.996 90.1137Z" fill="#02ECF1"/>
<path fill-rule="evenodd" clip-rule="evenodd" d="M130.49 107.956C130.466 108.064 130.427 108.174 130.396 108.281C130.43 108.167 130.468 108.054 130.491 107.938C130.49 107.945 130.49 107.95 130.49 107.956ZM130.245 108.75C130.201 108.855 130.143 108.96 130.092 109.062C130.146 108.954 130.204 108.845 130.249 108.734C130.247 108.739 130.246 108.745 130.245 108.75ZM129.839 109.54C129.779 109.636 129.706 109.73 129.639 109.825C129.709 109.728 129.783 109.628 129.845 109.526C129.842 109.532 129.841 109.536 129.839 109.54ZM129.235 110.355C129.172 110.428 129.103 110.5 129.035 110.571C129.105 110.497 129.177 110.422 129.241 110.346C129.238 110.349 129.237 110.351 129.235 110.355ZM128.696 110.935C128.57 111.055 128.42 111.172 128.279 111.29C128.423 111.169 128.575 111.049 128.704 110.925C128.7 110.929 128.699 110.931 128.696 110.935ZM127.503 111.886C127.446 111.925 127.391 111.965 127.333 112.006C127.393 111.964 127.451 111.921 127.51 111.881C127.508 111.882 127.505 111.884 127.503 111.886ZM130.55 107.488C130.771 105.231 129.186 102.935 125.763 101.212C119.354 97.985 109.003 97.985 102.64 101.208C99.4703 102.815 97.8896 104.92 97.8932 107.027C97.8932 107.02 97.8908 107.013 97.8908 107.007L97.8814 109.922C97.8755 112.05 99.4857 114.183 102.712 115.808C103.098 116 103.499 116.182 103.91 116.354C104.051 116.409 104.197 116.462 104.341 116.516C104.583 116.61 104.821 116.708 105.07 116.793C105.098 116.803 105.13 116.81 105.159 116.819C105.727 117.012 106.316 117.183 106.919 117.337C106.965 117.35 107.008 117.366 107.055 117.378C107.19 117.41 107.33 117.434 107.465 117.465C107.804 117.543 108.145 117.618 108.492 117.684C108.582 117.702 108.669 117.725 108.76 117.742C108.893 117.765 109.031 117.782 109.166 117.802C109.454 117.851 109.744 117.896 110.035 117.936C110.152 117.952 110.264 117.973 110.381 117.988C110.508 118.004 110.638 118.011 110.765 118.026C111.035 118.055 111.306 118.081 111.578 118.105C111.71 118.116 111.839 118.134 111.971 118.144C112.094 118.151 112.217 118.152 112.34 118.161C112.614 118.177 112.886 118.188 113.161 118.199C113.302 118.204 113.441 118.216 113.581 118.218C113.693 118.221 113.804 118.216 113.916 118.217C114.216 118.221 114.513 118.218 114.811 118.212C114.96 118.211 115.108 118.216 115.256 118.211C115.342 118.209 115.428 118.199 115.517 118.195C115.886 118.181 116.254 118.158 116.622 118.133C116.771 118.121 116.921 118.118 117.069 118.106C117.115 118.102 117.16 118.095 117.206 118.091C117.832 118.032 118.452 117.959 119.062 117.863C119.092 117.859 119.124 117.857 119.155 117.852C119.333 117.825 119.505 117.785 119.681 117.753C119.984 117.7 120.287 117.649 120.585 117.585C120.8 117.54 121.012 117.487 121.225 117.435C121.508 117.367 121.791 117.301 122.067 117.225C122.128 117.209 122.19 117.196 122.25 117.181C122.349 117.152 122.44 117.113 122.539 117.085C122.978 116.955 123.407 116.813 123.825 116.659C123.98 116.603 124.135 116.547 124.286 116.488C124.819 116.277 125.34 116.054 125.829 115.808C125.896 115.774 125.964 115.739 126.029 115.705C126.176 115.628 126.302 115.543 126.441 115.465C126.644 115.351 126.851 115.237 127.038 115.116C127.2 115.014 127.344 114.907 127.495 114.802C127.666 114.682 127.842 114.564 127.997 114.44C128.029 114.415 128.068 114.393 128.099 114.367C128.309 114.197 128.502 114.025 128.686 113.851C128.724 113.814 128.756 113.779 128.792 113.743C128.901 113.636 129.013 113.527 129.112 113.418C129.156 113.369 129.184 113.319 129.225 113.271C129.366 113.107 129.49 112.942 129.609 112.776C129.658 112.704 129.724 112.637 129.77 112.565C129.793 112.529 129.806 112.493 129.828 112.457C129.919 112.31 129.993 112.16 130.068 112.011C130.111 111.925 130.169 111.84 130.206 111.754C130.219 111.725 130.222 111.696 130.234 111.668C130.293 111.526 130.333 111.38 130.376 111.236C130.404 111.141 130.447 111.048 130.47 110.952C130.476 110.927 130.473 110.901 130.48 110.876C130.512 110.724 130.524 110.573 130.539 110.422C130.549 110.325 130.574 110.229 130.577 110.134C130.578 110.094 130.58 110.054 130.58 110.015C130.58 110.012 130.58 110.011 130.58 110.009C130.582 109.037 130.585 108.064 130.588 107.092C130.588 107.224 130.563 107.356 130.55 107.488Z" fill="#250F8A"/>
<mask id="mask0" mask-type="alpha" maskUnits="userSpaceOnUse" x="97" y="106" width="33" height="12">
<path fill-rule="evenodd" clip-rule="evenodd" d="M97.7029 109.383C97.696 111.526 99.2782 113.673 102.445 115.309C108.734 118.558 118.898 118.558 125.145 115.309C128.248 113.696 129.803 111.584 129.808 109.47C129.811 108.491 129.815 107.511 129.818 106.532C129.811 108.647 128.257 110.76 125.154 112.371C118.907 115.619 108.743 115.619 102.455 112.371C99.2863 110.737 97.7052 108.589 97.711 106.447" fill="white"/>
</mask>
<g mask="url(#mask0)">
<path fill-rule="evenodd" clip-rule="evenodd" d="M129.817 106.536L129.808 109.474C129.808 109.515 129.807 109.557 129.806 109.599L129.816 106.663C129.816 106.62 129.817 106.578 129.817 106.536Z" fill="#872D24"/>
</g>
<mask id="mask1" mask-type="alpha" maskUnits="userSpaceOnUse" x="97" y="106" width="33" height="12">
<path fill-rule="evenodd" clip-rule="evenodd" d="M97.7029 109.383C97.696 111.526 99.2782 113.673 102.445 115.309C108.734 118.558 118.898 118.558 125.145 115.309C128.248 113.696 129.803 111.584 129.808 109.47C129.811 108.491 129.815 107.511 129.818 106.532C129.811 108.647 128.257 110.76 125.154 112.371C118.907 115.619 108.743 115.619 102.455 112.371C99.2863 110.737 97.7052 108.589 97.711 106.447" fill="white"/>
</mask>
<g mask="url(#mask1)">
<path fill-rule="evenodd" clip-rule="evenodd" d="M129.816 106.659L129.807 109.596C129.797 109.871 129.763 110.146 129.701 110.42L129.71 107.482C129.772 107.209 129.807 106.934 129.816 106.659Z" fill="#250F8A"/>
</g>
<path fill-rule="evenodd" clip-rule="evenodd" d="M129.711 107.482L129.701 110.421C129.64 110.691 129.553 110.961 129.442 111.228L129.451 108.29C129.562 108.024 129.649 107.755 129.711 107.482Z" fill="#250F8A"/>
<path fill-rule="evenodd" clip-rule="evenodd" d="M129.451 108.291L129.442 111.228C129.326 111.505 129.183 111.776 129.014 112.045L129.024 109.107C129.193 108.838 129.335 108.565 129.451 108.291Z" fill="#250F8A"/>
<path fill-rule="evenodd" clip-rule="evenodd" d="M129.023 109.107L129.014 112.045C128.83 112.336 128.615 112.622 128.368 112.903L128.377 109.966C128.624 109.684 128.839 109.399 129.023 109.107Z" fill="#250F8A"/>
<path fill-rule="evenodd" clip-rule="evenodd" d="M128.377 109.966L128.368 112.902C128.079 113.229 127.748 113.55 127.373 113.86L127.382 110.922C127.757 110.612 128.089 110.293 128.377 109.966Z" fill="#250F8A"/>
<path fill-rule="evenodd" clip-rule="evenodd" d="M127.382 110.922L127.374 113.86C126.798 114.335 126.12 114.786 125.341 115.207L125.35 112.269C126.128 111.85 126.806 111.398 127.382 110.922Z" fill="#250F8A"/>
<path fill-rule="evenodd" clip-rule="evenodd" d="M125.349 112.269L125.34 115.206C125.276 115.24 125.21 115.275 125.144 115.31C124.074 115.866 122.889 116.326 121.63 116.693L121.638 113.756C122.899 113.389 124.085 112.928 125.154 112.371C125.221 112.337 125.285 112.303 125.349 112.269Z" fill="#250F8A"/>
<path fill-rule="evenodd" clip-rule="evenodd" d="M121.639 113.756L121.63 116.693C120.655 116.975 119.636 117.201 118.59 117.369L118.598 114.432C119.645 114.263 120.665 114.037 121.639 113.756Z" fill="#250F8A"/>
<path fill-rule="evenodd" clip-rule="evenodd" d="M118.599 114.433L118.591 117.369C117.918 117.477 117.233 117.563 116.543 117.625L116.551 114.687C117.243 114.627 117.927 114.541 118.599 114.433Z" fill="#250F8A"/>
<path fill-rule="evenodd" clip-rule="evenodd" d="M116.551 114.686L116.543 117.625C115.953 117.676 115.358 117.712 114.763 117.73L114.771 114.794C115.369 114.775 115.962 114.739 116.551 114.686Z" fill="#250F8A"/>
<path fill-rule="evenodd" clip-rule="evenodd" d="M114.772 114.794L114.762 117.73C114.214 117.748 113.665 117.75 113.118 117.738L113.127 114.801C113.675 114.814 114.224 114.81 114.772 114.794Z" fill="#250F8A"/>
<path fill-rule="evenodd" clip-rule="evenodd" d="M113.127 114.8L113.118 117.737C112.589 117.726 112.061 117.7 111.537 117.663L111.546 114.725C112.071 114.763 112.599 114.788 113.127 114.8Z" fill="#250F8A"/>
<path fill-rule="evenodd" clip-rule="evenodd" d="M111.546 114.725L111.537 117.663C111.013 117.624 110.492 117.571 109.975 117.506L109.985 114.568C110.501 114.634 111.023 114.686 111.546 114.725Z" fill="#250F8A"/>
<path fill-rule="evenodd" clip-rule="evenodd" d="M109.985 114.568L109.976 117.505C109.44 117.437 108.908 117.355 108.384 117.258L108.393 114.321C108.917 114.418 109.448 114.5 109.985 114.568Z" fill="#250F8A"/>
<path fill-rule="evenodd" clip-rule="evenodd" d="M108.393 114.321L108.384 117.258C107.816 117.153 107.258 117.03 106.71 116.891L106.719 113.954C107.267 114.093 107.825 114.214 108.393 114.321Z" fill="#250F8A"/>
<path fill-rule="evenodd" clip-rule="evenodd" d="M106.719 113.954L106.71 116.892C106.041 116.721 105.389 116.524 104.761 116.303L104.77 113.366C105.398 113.587 106.049 113.784 106.719 113.954Z" fill="#250F8A"/>
<path fill-rule="evenodd" clip-rule="evenodd" d="M104.77 113.365L104.761 116.302C103.946 116.014 103.17 115.684 102.445 115.31C99.2774 113.674 97.6963 111.527 97.7021 109.382L97.7114 106.446C97.7044 108.589 99.2866 110.736 102.455 112.371C103.18 112.745 103.955 113.078 104.77 113.365Z" fill="#250F8A"/>
<path fill-rule="evenodd" clip-rule="evenodd" d="M121.153 110.819H128.222C131.255 107.724 130.241 103.852 125.167 101.267C121.668 99.4835 116.979 98.6895 112.424 98.8777L106.302 103.253L121.153 110.819Z" fill="#02ECF1"/>
<path fill-rule="evenodd" clip-rule="evenodd" d="M121.153 110.819L106.302 103.253L112.424 98.8778C108.737 99.029 105.138 99.821 102.326 101.263C96.0423 104.487 96.0761 109.714 102.408 112.941C108.733 116.164 118.958 116.164 125.242 112.941C126.487 112.303 127.473 111.583 128.222 110.819H121.153Z" fill="#02ECF1"/>
<path fill-rule="evenodd" clip-rule="evenodd" d="M121.258 77.7774L123.401 76.6779L123.295 109.72L121.153 110.819L121.258 77.7774Z" fill="#4F34CE"/>
<path fill-rule="evenodd" clip-rule="evenodd" d="M106.409 70.2079L108.551 69.1094L123.401 76.6773L121.258 77.7768L106.409 70.2079Z" fill="#263543"/>
<path fill-rule="evenodd" clip-rule="evenodd" d="M121.258 77.7772L121.153 110.819L106.302 103.253L106.408 70.2083L121.258 77.7772Z" fill="#250F8A"/>
<path fill-rule="evenodd" clip-rule="evenodd" d="M66.124 17.0851C66.1287 17.0851 66.1333 17.0841 66.1368 17.083C66.0483 17.1005 65.9725 17.1375 65.8898 17.1632C65.9679 17.1396 66.0401 17.1015 66.124 17.0851ZM67.4885 17.1859C67.4908 17.1859 67.492 17.1869 67.4931 17.1869C67.4116 17.1633 67.3382 17.1581 67.2578 17.1417C67.3358 17.1581 67.4092 17.1633 67.4885 17.1859ZM66.7824 17.0531H66.794C66.7008 17.0469 66.6169 17.0623 66.5283 17.0634C66.6134 17.0623 66.6926 17.0469 66.7824 17.0531ZM162.836 118.637C162.863 118.583 162.88 118.516 162.902 118.459C162.867 118.548 162.844 118.652 162.8 118.733C162.816 118.705 162.822 118.667 162.836 118.637ZM162.646 118.946C162.581 119.038 162.524 119.14 162.447 119.217C162.524 119.14 162.581 119.038 162.646 118.946ZM166.82 67.6933C166.811 67.5493 166.794 67.4043 166.771 67.2572C166.767 67.2305 166.761 67.2047 166.756 67.178C166.751 67.1574 166.747 67.1348 166.743 67.1132C166.729 67.0422 166.719 66.9723 166.702 66.9024C166.678 66.7974 166.651 66.6905 166.62 66.5876C166.594 66.494 166.564 66.4015 166.532 66.3089C166.532 66.3079 166.531 66.3048 166.531 66.3038L166.527 66.2945C166.497 66.203 166.463 66.1124 166.427 66.0209C166.392 65.9314 166.355 65.843 166.317 65.7545C166.278 65.6671 166.237 65.5807 166.195 65.4943C166.191 65.4861 166.187 65.4778 166.183 65.4686C166.179 65.4634 166.176 65.4573 166.173 65.4511C166.137 65.3791 166.101 65.3081 166.064 65.2372C166.017 65.1508 165.969 65.0654 165.92 64.9811C165.869 64.8936 165.817 64.8072 165.762 64.7219C165.749 64.7023 165.734 64.6818 165.721 64.6612C165.713 64.6489 165.705 64.6365 165.697 64.6252C165.661 64.5697 165.624 64.5131 165.586 64.4586C165.523 64.367 165.457 64.2765 165.388 64.186C165.314 64.0893 165.239 63.9927 165.161 63.8991C165.157 63.896 165.154 63.8919 165.15 63.8877C165.143 63.8785 165.134 63.8692 165.126 63.86C165.046 63.7653 164.967 63.6728 164.883 63.5823C164.763 63.4527 164.64 63.3272 164.513 63.2058C164.509 63.2038 164.506 63.2007 164.502 63.1986C164.344 63.0485 164.175 62.9189 164.006 62.7872C163.929 62.7234 163.856 62.6535 163.775 62.5949C163.522 62.4128 163.261 62.2514 162.993 62.1156L71.8756 15.6796C71.8115 15.6477 71.7497 15.6179 71.6868 15.5891C71.5377 15.5202 71.3897 15.4605 71.2452 15.4102C71.2056 15.3968 71.1671 15.3886 71.1275 15.3762C71.1042 15.368 71.0809 15.3618 71.0576 15.3536C71.0121 15.3423 70.9667 15.3248 70.9224 15.3135C70.8292 15.2919 70.7371 15.2713 70.6474 15.2569C70.5647 15.2425 70.4831 15.2312 70.4039 15.224C70.3946 15.223 70.3853 15.223 70.3748 15.2219H70.3526C70.2944 15.2178 70.2373 15.2137 70.1802 15.2137C70.1103 15.2127 70.0403 15.2147 69.9716 15.2188C69.9063 15.2219 69.8388 15.2291 69.7747 15.2404C69.756 15.2425 69.7397 15.2466 69.7211 15.2507C69.7118 15.2528 69.7024 15.2538 69.6943 15.2559C69.6582 15.2631 69.6209 15.2672 69.5859 15.2754C69.523 15.2919 69.4624 15.3083 69.403 15.3289C69.3435 15.3484 69.2841 15.3721 69.227 15.3968C69.1956 15.4112 69.1653 15.4266 69.135 15.441C68.5407 15.7465 67.9453 16.0509 67.351 16.3574C66.7556 16.6629 66.1613 16.9684 65.5659 17.2728C65.5682 17.2708 65.5706 17.2708 65.5729 17.2697C64.8796 17.6215 64.4473 18.3775 64.4438 19.4533L64.2912 67.0145C64.2865 68.547 65.1581 70.3058 66.4223 71.5894C66.9374 72.1129 67.5118 72.5675 68.1282 72.8802L159.246 119.317C159.806 119.602 160.335 119.744 160.817 119.77C161.377 119.801 161.857 119.652 162.238 119.368C162.154 119.43 162.079 119.505 161.984 119.553C162.163 119.46 162.342 119.37 162.52 119.278C162.574 119.25 162.645 119.214 162.699 119.188C163.175 118.943 163.651 118.698 164.126 118.454C164.543 118.241 164.959 118.027 165.376 117.813C165.43 117.786 165.501 117.749 165.556 117.721C166.245 117.367 166.673 116.614 166.677 115.542L166.829 67.9803C166.829 67.8856 166.826 67.79 166.82 67.6933Z" fill="#250F8A"/>
<mask id="mask2" mask-type="alpha" maskUnits="userSpaceOnUse" x="65" y="15" width="7" height="3">
<path fill-rule="evenodd" clip-rule="evenodd" d="M68.897 15.4363C68.2959 15.7451 67.6936 16.0528 67.0913 16.3595C66.4891 16.6662 65.8892 16.974 65.2857 17.2807C65.9929 16.919 66.9723 16.9709 68.0566 17.521L71.6679 15.6777C71.0373 15.3576 70.4433 15.2063 69.9165 15.2063C69.537 15.2063 69.1928 15.285 68.897 15.4363Z" fill="white"/>
</mask>
<g mask="url(#mask2)">
<path fill-rule="evenodd" clip-rule="evenodd" d="M65.2859 17.2807L68.896 15.4364C68.9267 15.4219 68.9573 15.4064 68.9891 15.3939L65.3779 17.2372C65.3461 17.2517 65.3154 17.2652 65.2859 17.2807Z" fill="#1A242E"/>
</g>
<mask id="mask3" mask-type="alpha" maskUnits="userSpaceOnUse" x="65" y="15" width="7" height="3">
<path fill-rule="evenodd" clip-rule="evenodd" d="M68.897 15.4363C68.2959 15.7451 67.6936 16.0528 67.0913 16.3595C66.4891 16.6662 65.8892 16.974 65.2857 17.2807C65.9929 16.919 66.9723 16.9709 68.0566 17.521L71.6679 15.6777C71.0373 15.3576 70.4433 15.2063 69.9165 15.2063C69.537 15.2063 69.1928 15.285 68.897 15.4363Z" fill="white"/>
</mask>
<g mask="url(#mask3)">
<path fill-rule="evenodd" clip-rule="evenodd" d="M65.3774 17.2419L68.9886 15.3986C69.0464 15.3707 69.1065 15.3489 69.1678 15.3271L65.5565 17.1736C65.4964 17.1932 65.4363 17.2171 65.3774 17.2419Z" fill="#1B252F"/>
</g>
<mask id="mask4" mask-type="alpha" maskUnits="userSpaceOnUse" x="65" y="15" width="7" height="3">
<path fill-rule="evenodd" clip-rule="evenodd" d="M68.897 15.4363C68.2959 15.7451 67.6936 16.0528 67.0913 16.3595C66.4891 16.6662 65.8892 16.974 65.2857 17.2807C65.9929 16.919 66.9723 16.9709 68.0566 17.521L71.6679 15.6777C71.0373 15.3576 70.4433 15.2063 69.9165 15.2063C69.537 15.2063 69.1928 15.285 68.897 15.4363Z" fill="white"/>
</mask>
<g mask="url(#mask4)">
<path fill-rule="evenodd" clip-rule="evenodd" d="M65.557 17.1709L69.1671 15.3256C69.2272 15.3048 69.2897 15.2882 69.3521 15.2737L65.7409 17.1181C65.6784 17.1326 65.6171 17.1502 65.557 17.1709Z" fill="#1C2631"/>
</g>
<mask id="mask5" mask-type="alpha" maskUnits="userSpaceOnUse" x="65" y="15" width="7" height="3">
<path fill-rule="evenodd" clip-rule="evenodd" d="M68.897 15.4363C68.2959 15.7451 67.6936 16.0528 67.0913 16.3595C66.4891 16.6662 65.8892 16.974 65.2857 17.2807C65.9929 16.919 66.9723 16.9709 68.0566 17.521L71.6679 15.6777C71.0373 15.3576 70.4433 15.2063 69.9165 15.2063C69.537 15.2063 69.1928 15.285 68.897 15.4363Z" fill="white"/>
</mask>
<g mask="url(#mask5)">
<path fill-rule="evenodd" clip-rule="evenodd" d="M65.7411 17.1167L69.3512 15.2724C69.4148 15.2558 69.4785 15.2434 69.5433 15.2351L65.932 17.0794C65.8672 17.0898 65.8036 17.1012 65.7411 17.1167Z" fill="#1D2732"/>
</g>
<mask id="mask6" mask-type="alpha" maskUnits="userSpaceOnUse" x="65" y="15" width="7" height="3">
<path fill-rule="evenodd" clip-rule="evenodd" d="M68.897 15.4363C68.2959 15.7451 67.6936 16.0528 67.0913 16.3595C66.4891 16.6662 65.8892 16.974 65.2857 17.2807C65.9929 16.919 66.9723 16.9709 68.0566 17.521L71.6679 15.6777C71.0373 15.3576 70.4433 15.2063 69.9165 15.2063C69.537 15.2063 69.1928 15.285 68.897 15.4363Z" fill="white"/>
</mask>
<g mask="url(#mask6)">
<path fill-rule="evenodd" clip-rule="evenodd" d="M65.9316 17.0784L69.5429 15.2341C69.6077 15.2248 69.6761 15.2175 69.7421 15.2123L66.132 17.0567C66.0636 17.0608 65.9976 17.0691 65.9316 17.0784Z" fill="#1D2934"/>
</g>
<mask id="mask7" mask-type="alpha" maskUnits="userSpaceOnUse" x="65" y="15" width="7" height="3">
<path fill-rule="evenodd" clip-rule="evenodd" d="M68.897 15.4363C68.2959 15.7451 67.6936 16.0528 67.0913 16.3595C66.4891 16.6662 65.8892 16.974 65.2857 17.2807C65.9929 16.919 66.9723 16.9709 68.0566 17.521L71.6679 15.6777C71.0373 15.3576 70.4433 15.2063 69.9165 15.2063C69.537 15.2063 69.1928 15.285 68.897 15.4363Z" fill="white"/>
</mask>
<g mask="url(#mask7)">
<path fill-rule="evenodd" clip-rule="evenodd" d="M66.1324 17.0569L69.7425 15.2126C69.8121 15.2074 69.8828 15.2064 69.9535 15.2064L66.3434 17.0507C66.2715 17.0507 66.202 17.0517 66.1324 17.0569Z" fill="#1E2A35"/>
</g>
<mask id="mask8" mask-type="alpha" maskUnits="userSpaceOnUse" x="65" y="15" width="7" height="3">
<path fill-rule="evenodd" clip-rule="evenodd" d="M68.897 15.4363C68.2959 15.7451 67.6936 16.0528 67.0913 16.3595C66.4891 16.6662 65.8892 16.974 65.2857 17.2807C65.9929 16.919 66.9723 16.9709 68.0566 17.521L71.6679 15.6777C71.0373 15.3576 70.4433 15.2063 69.9165 15.2063C69.537 15.2063 69.1928 15.285 68.897 15.4363Z" fill="white"/>
</mask>
<g mask="url(#mask8)">
<path fill-rule="evenodd" clip-rule="evenodd" d="M66.3431 17.0508L69.9532 15.2065C70.0275 15.2075 70.1029 15.2127 70.1795 15.2179L66.5683 17.0633C66.4916 17.057 66.4174 17.0519 66.3431 17.0508Z" fill="#1F2B37"/>
</g>
<mask id="mask9" mask-type="alpha" maskUnits="userSpaceOnUse" x="65" y="15" width="7" height="3">
<path fill-rule="evenodd" clip-rule="evenodd" d="M68.897 15.4363C68.2959 15.7451 67.6936 16.0528 67.0913 16.3595C66.4891 16.6662 65.8892 16.974 65.2857 17.2807C65.9929 16.919 66.9723 16.9709 68.0566 17.521L71.6679 15.6777C71.0373 15.3576 70.4433 15.2063 69.9165 15.2063C69.537 15.2063 69.1928 15.285 68.897 15.4363Z" fill="white"/>
</mask>
<g mask="url(#mask9)">
<path fill-rule="evenodd" clip-rule="evenodd" d="M66.5687 17.0636L70.1788 15.2192C70.2601 15.2265 70.3426 15.2369 70.4251 15.2503L66.8139 17.0947C66.7314 17.0822 66.6489 17.0708 66.5687 17.0636Z" fill="#202C38"/>
</g>
<mask id="mask10" mask-type="alpha" maskUnits="userSpaceOnUse" x="65" y="15" width="7" height="3">
<path fill-rule="evenodd" clip-rule="evenodd" d="M68.897 15.4363C68.2959 15.7451 67.6936 16.0528 67.0913 16.3595C66.4891 16.6662 65.8892 16.974 65.2857 17.2807C65.9929 16.919 66.9723 16.9709 68.0566 17.521L71.6679 15.6777C71.0373 15.3576 70.4433 15.2063 69.9165 15.2063C69.537 15.2063 69.1928 15.285 68.897 15.4363Z" fill="white"/>
</mask>
<g mask="url(#mask10)">
<path fill-rule="evenodd" clip-rule="evenodd" d="M66.8145 17.0962L70.4257 15.2518C70.5177 15.2674 70.6096 15.2871 70.7039 15.3099L67.0926 17.1552C66.9983 17.1314 66.9052 17.1138 66.8145 17.0962Z" fill="#212D3A"/>
</g>
<path fill-rule="evenodd" clip-rule="evenodd" d="M68.897 15.4363C68.2959 15.7451 67.6936 16.0528 67.0913 16.3595C66.4891 16.6662 65.8892 16.974 65.2857 17.2807C65.9929 16.919 66.9723 16.9709 68.0566 17.521L71.6679 15.6777C71.0373 15.3576 70.4433 15.2063 69.9165 15.2063C69.537 15.2063 69.1928 15.285 68.897 15.4363Z" fill="#250F8A"/>
<mask id="mask11" mask-type="alpha" maskUnits="userSpaceOnUse" x="65" y="15" width="7" height="3">
<path fill-rule="evenodd" clip-rule="evenodd" d="M68.897 15.4363C68.2959 15.7451 67.6936 16.0528 67.0913 16.3595C66.4891 16.6662 65.8892 16.974 65.2857 17.2807C65.9929 16.919 66.9723 16.9709 68.0566 17.521L71.6679 15.6777C71.0373 15.3576 70.4433 15.2063 69.9165 15.2063C69.537 15.2063 69.1928 15.285 68.897 15.4363Z" fill="white"/>
</mask>
<g mask="url(#mask11)">
<path fill-rule="evenodd" clip-rule="evenodd" d="M67.0923 17.1575L70.7036 15.3131C70.8109 15.3401 70.9193 15.3722 71.0301 15.4095L67.4188 17.2548C67.3092 17.2186 67.1996 17.1844 67.0923 17.1575Z" fill="#250F8A"/>
</g>
<path fill-rule="evenodd" clip-rule="evenodd" d="M67.4193 17.2504L71.0294 15.4061C71.1767 15.4558 71.3252 15.5149 71.4773 15.5864L67.866 17.4307C67.7151 17.3602 67.5666 17.3001 67.4193 17.2504Z" fill="#250F8A"/>
<path fill-rule="evenodd" clip-rule="evenodd" d="M67.8665 17.4303L71.4766 15.586C71.5414 15.614 71.6027 15.644 71.6687 15.6782L68.0563 17.5215C67.9926 17.4904 67.9302 17.4573 67.8665 17.4303Z" fill="#250F8A"/>
<mask id="mask12" mask-type="alpha" maskUnits="userSpaceOnUse" x="161" y="115" width="6" height="5">
<path fill-rule="evenodd" clip-rule="evenodd" d="M162.874 117.225C162.873 118.358 162.417 119.155 161.683 119.531C161.873 119.435 162.063 119.337 162.251 119.24C162.309 119.211 162.385 119.172 162.442 119.142C162.948 118.885 163.453 118.626 163.959 118.367C164.401 118.142 164.844 117.917 165.286 117.691C165.343 117.662 165.418 117.624 165.476 117.594C166.209 117.218 166.663 116.422 166.667 115.287" fill="white"/>
</mask>
<g mask="url(#mask12)">
<path fill-rule="evenodd" clip-rule="evenodd" d="M162.875 117.225L166.667 115.287C166.664 116.422 166.209 117.219 165.476 117.594L161.684 119.53C162.417 119.155 162.872 118.358 162.875 117.225Z" fill="#250F8A"/>
</g>
<path fill-rule="evenodd" clip-rule="evenodd" d="M163.261 69.6554L166.828 67.8295L166.677 115.264L163.107 117.091L163.261 69.6554Z" fill="#250F8A"/>
<path fill-rule="evenodd" clip-rule="evenodd" d="M68.3448 17.4947L71.9136 15.6699L162.996 61.981L159.426 63.8069L68.3448 17.4947Z" fill="#250F8A"/>
<mask id="mask13" mask-type="alpha" maskUnits="userSpaceOnUse" x="159" y="61" width="8" height="9">
<path fill-rule="evenodd" clip-rule="evenodd" d="M159.605 63.5249C161.682 64.617 163.354 67.2571 163.348 69.432L166.829 67.5877C166.836 65.4128 165.163 62.7727 163.088 61.6806" fill="white"/>
</mask>
<g mask="url(#mask13)">
<path fill-rule="evenodd" clip-rule="evenodd" d="M159.605 63.5247L163.088 61.6804C163.615 61.957 164.115 62.3342 164.57 62.7787L161.087 64.623C160.634 64.1785 160.133 63.8024 159.605 63.5247Z" fill="#23313E"/>
</g>
<mask id="mask14" mask-type="alpha" maskUnits="userSpaceOnUse" x="159" y="61" width="8" height="9">
<path fill-rule="evenodd" clip-rule="evenodd" d="M159.605 63.5249C161.682 64.617 163.354 67.2571 163.348 69.432L166.829 67.5877C166.836 65.4128 165.163 62.7727 163.088 61.6806" fill="white"/>
</mask>
<g mask="url(#mask14)">
<path fill-rule="evenodd" clip-rule="evenodd" d="M161.088 64.6227L164.569 62.7794C164.694 62.8996 164.814 63.026 164.931 63.1576L161.449 65.002C161.333 64.8704 161.211 64.744 161.088 64.6227Z" fill="#22303D"/>
</g>
<mask id="mask15" mask-type="alpha" maskUnits="userSpaceOnUse" x="159" y="61" width="8" height="9">
<path fill-rule="evenodd" clip-rule="evenodd" d="M159.605 63.5249C161.682 64.617 163.354 67.2571 163.348 69.432L166.829 67.5877C166.836 65.4128 165.163 62.7727 163.088 61.6806" fill="white"/>
</mask>
<g mask="url(#mask15)">
<path fill-rule="evenodd" clip-rule="evenodd" d="M161.449 65.002L164.931 63.1577C165.025 63.2613 165.115 63.368 165.202 63.4768L161.72 65.3222C161.632 65.2123 161.543 65.1056 161.449 65.002Z" fill="#222E3B"/>
</g>
<mask id="mask16" mask-type="alpha" maskUnits="userSpaceOnUse" x="159" y="61" width="8" height="9">
<path fill-rule="evenodd" clip-rule="evenodd" d="M159.605 63.5249C161.682 64.617 163.354 67.2571 163.348 69.432L166.829 67.5877C166.836 65.4128 165.163 62.7727 163.088 61.6806" fill="white"/>
</mask>
<g mask="url(#mask16)">
<path fill-rule="evenodd" clip-rule="evenodd" d="M161.72 65.3218L165.202 63.4774C165.278 63.5717 165.352 63.667 165.424 63.7665L161.942 65.6108C161.871 65.5134 161.796 65.416 161.72 65.3218Z" fill="#212D3A"/>
</g>
<mask id="mask17" mask-type="alpha" maskUnits="userSpaceOnUse" x="159" y="61" width="8" height="9">
<path fill-rule="evenodd" clip-rule="evenodd" d="M159.605 63.5249C161.682 64.617 163.354 67.2571 163.348 69.432L166.829 67.5877C166.836 65.4128 165.163 62.7727 163.088 61.6806" fill="white"/>
</mask>
<g mask="url(#mask17)">
<path fill-rule="evenodd" clip-rule="evenodd" d="M161.943 65.611L165.424 63.7667C165.49 63.8568 165.555 63.948 165.616 64.0392L162.135 65.8845C162.072 65.7923 162.009 65.7011 161.943 65.611Z" fill="#202C38"/>
</g>
<mask id="mask18" mask-type="alpha" maskUnits="userSpaceOnUse" x="159" y="61" width="8" height="9">
<path fill-rule="evenodd" clip-rule="evenodd" d="M159.605 63.5249C161.682 64.617 163.354 67.2571 163.348 69.432L166.829 67.5877C166.836 65.4128 165.163 62.7727 163.088 61.6806" fill="white"/>
</mask>
<g mask="url(#mask18)">
<path fill-rule="evenodd" clip-rule="evenodd" d="M162.135 65.8843L165.616 64.04C165.676 64.1281 165.733 64.2161 165.789 64.3063L162.305 66.1506C162.251 66.0605 162.194 65.9724 162.135 65.8843Z" fill="#1F2B37"/>
</g>
<mask id="mask19" mask-type="alpha" maskUnits="userSpaceOnUse" x="159" y="61" width="8" height="9">
<path fill-rule="evenodd" clip-rule="evenodd" d="M159.605 63.5249C161.682 64.617 163.354 67.2571 163.348 69.432L166.829 67.5877C166.836 65.4128 165.163 62.7727 163.088 61.6806" fill="white"/>
</mask>
<g mask="url(#mask19)">
<path fill-rule="evenodd" clip-rule="evenodd" d="M162.306 66.1507L165.788 64.3063C165.841 64.3923 165.893 64.4794 165.943 64.5674L162.46 66.4108C162.411 66.3237 162.359 66.2356 162.306 66.1507Z" fill="#1E2A35"/>
</g>
<mask id="mask20" mask-type="alpha" maskUnits="userSpaceOnUse" x="159" y="61" width="8" height="9">
<path fill-rule="evenodd" clip-rule="evenodd" d="M159.605 63.5249C161.682 64.617 163.354 67.2571 163.348 69.432L166.829 67.5877C166.836 65.4128 165.163 62.7727 163.088 61.6806" fill="white"/>
</mask>
<g mask="url(#mask20)">
<path fill-rule="evenodd" clip-rule="evenodd" d="M162.46 66.4106L165.942 64.5673C165.99 64.6523 166.038 64.7372 166.082 64.8243L162.601 66.6697C162.555 66.5816 162.509 66.4956 162.46 66.4106Z" fill="#1D2934"/>
</g>
<mask id="mask21" mask-type="alpha" maskUnits="userSpaceOnUse" x="159" y="61" width="8" height="9">
<path fill-rule="evenodd" clip-rule="evenodd" d="M159.605 63.5249C161.682 64.617 163.354 67.2571 163.348 69.432L166.829 67.5877C166.836 65.4128 165.163 62.7727 163.088 61.6806" fill="white"/>
</mask>
<g mask="url(#mask21)">
<path fill-rule="evenodd" clip-rule="evenodd" d="M162.6 66.6695L166.082 64.8242C166.128 64.9102 166.17 64.9972 166.211 65.0832L162.729 66.9275C162.688 66.8415 162.645 66.7555 162.6 66.6695Z" fill="#1D2732"/>
</g>
<mask id="mask22" mask-type="alpha" maskUnits="userSpaceOnUse" x="159" y="61" width="8" height="9">
<path fill-rule="evenodd" clip-rule="evenodd" d="M159.605 63.5249C161.682 64.617 163.354 67.2571 163.348 69.432L166.829 67.5877C166.836 65.4128 165.163 62.7727 163.088 61.6806" fill="white"/>
</mask>
<g mask="url(#mask22)">
<path fill-rule="evenodd" clip-rule="evenodd" d="M162.729 66.9275L166.21 65.0832C166.252 65.1702 166.292 65.2583 166.33 65.3464L162.846 67.1918C162.81 67.1026 162.77 67.0156 162.729 66.9275Z" fill="#1C2631"/>
</g>
<mask id="mask23" mask-type="alpha" maskUnits="userSpaceOnUse" x="159" y="61" width="8" height="9">
<path fill-rule="evenodd" clip-rule="evenodd" d="M159.605 63.5249C161.682 64.617 163.354 67.2571 163.348 69.432L166.829 67.5877C166.836 65.4128 165.163 62.7727 163.088 61.6806" fill="white"/>
</mask>
<g mask="url(#mask23)">
<path fill-rule="evenodd" clip-rule="evenodd" d="M162.846 67.1916L166.33 65.3463C166.367 65.4354 166.402 65.5245 166.438 65.6136L162.955 67.459C162.921 67.3688 162.886 67.2797 162.846 67.1916Z" fill="#1B252F"/>
</g>
<mask id="mask24" mask-type="alpha" maskUnits="userSpaceOnUse" x="159" y="61" width="8" height="9">
<path fill-rule="evenodd" clip-rule="evenodd" d="M159.605 63.5249C161.682 64.617 163.354 67.2571 163.348 69.432L166.829 67.5877C166.836 65.4128 165.163 62.7727 163.088 61.6806" fill="white"/>
</mask>
<g mask="url(#mask24)">
<path fill-rule="evenodd" clip-rule="evenodd" d="M162.955 67.459L166.437 65.6136C166.473 65.7059 166.506 65.7981 166.535 65.8903L163.053 67.7357C163.023 67.6424 162.99 67.5502 162.955 67.459Z" fill="#1A242E"/>
</g>
<mask id="mask25" mask-type="alpha" maskUnits="userSpaceOnUse" x="159" y="61" width="8" height="9">
<path fill-rule="evenodd" clip-rule="evenodd" d="M159.605 63.5249C161.682 64.617 163.354 67.2571 163.348 69.432L166.829 67.5877C166.836 65.4128 165.163 62.7727 163.088 61.6806" fill="white"/>
</mask>
<g mask="url(#mask25)">
<path fill-rule="evenodd" clip-rule="evenodd" d="M163.053 67.7351L166.535 65.8908C166.568 65.9872 166.598 66.0856 166.625 66.184L163.144 68.0284C163.117 67.9299 163.086 67.8336 163.053 67.7351Z" fill="#19232C"/>
</g>
<mask id="mask26" mask-type="alpha" maskUnits="userSpaceOnUse" x="159" y="61" width="8" height="9">
<path fill-rule="evenodd" clip-rule="evenodd" d="M159.605 63.5249C161.682 64.617 163.354 67.2571 163.348 69.432L166.829 67.5877C166.836 65.4128 165.163 62.7727 163.088 61.6806" fill="white"/>
</mask>
<g mask="url(#mask26)">
<path fill-rule="evenodd" clip-rule="evenodd" d="M163.144 68.0287L166.625 66.1844C166.655 66.2901 166.682 66.3958 166.705 66.5014L163.223 68.3468C163.2 68.2411 163.172 68.1355 163.144 68.0287Z" fill="#18222B"/>
</g>
<mask id="mask27" mask-type="alpha" maskUnits="userSpaceOnUse" x="159" y="61" width="8" height="9">
<path fill-rule="evenodd" clip-rule="evenodd" d="M159.605 63.5249C161.682 64.617 163.354 67.2571 163.348 69.432L166.829 67.5877C166.836 65.4128 165.163 62.7727 163.088 61.6806" fill="white"/>
</mask>
<g mask="url(#mask27)">
<path fill-rule="evenodd" clip-rule="evenodd" d="M163.223 68.3464L166.705 66.502C166.731 66.6212 166.754 66.7393 166.772 66.8584L163.291 68.7038C163.272 68.5847 163.25 68.4655 163.223 68.3464Z" fill="#182029"/>
</g>
<path fill-rule="evenodd" clip-rule="evenodd" d="M159.605 63.5249C161.682 64.617 163.354 67.2571 163.348 69.432L166.829 67.5877C166.836 65.4128 165.163 62.7727 163.088 61.6806" fill="#250F8A"/>
<mask id="mask28" mask-type="alpha" maskUnits="userSpaceOnUse" x="159" y="61" width="8" height="9">
<path fill-rule="evenodd" clip-rule="evenodd" d="M159.605 63.5249C161.682 64.617 163.354 67.2571 163.348 69.432L166.829 67.5877C166.836 65.4128 165.163 62.7727 163.088 61.6806" fill="white"/>
</mask>
<g mask="url(#mask28)">
<path fill-rule="evenodd" clip-rule="evenodd" d="M163.291 68.7035L166.772 66.8591C166.795 67.0063 166.811 67.1534 166.821 67.3005L163.339 69.1449C163.329 68.9988 163.314 68.8516 163.291 68.7035Z" fill="#250F8A"/>
</g>
<path fill-rule="evenodd" clip-rule="evenodd" d="M163.338 69.1445L166.821 67.3002C166.826 67.3965 166.829 67.4919 166.829 67.5872L163.348 69.4315C163.348 69.3383 163.344 69.2409 163.338 69.1445Z" fill="#250F8A"/>
<path fill-rule="evenodd" clip-rule="evenodd" d="M159.384 64.0873C161.512 65.1685 163.226 67.7832 163.219 69.9353L163.066 117.371C163.059 119.523 161.334 120.389 159.207 119.307L68.1253 72.9952C65.9984 71.914 64.2839 69.2983 64.2909 67.1462L64.4435 19.7108C64.4505 17.5598 66.1766 16.693 68.3035 17.7752L159.384 64.0873Z" fill="#0AD7DD"/>
<path fill-rule="evenodd" clip-rule="evenodd" d="M158.823 67.7946L71.0932 23.1862L70.972 66.2713L158.684 110.863L158.823 67.7946ZM102.425 50.1533L102.448 43.0159L154.228 69.3437L154.205 76.4811L102.425 50.1533ZM74.9473 36.1821L74.9706 29.0447L97.7146 40.6083L97.6925 47.7468L97.5958 77.5561L74.8506 65.9894L74.9473 36.1821ZM102.328 79.9605L102.425 50.1533L154.205 76.4811L154.108 106.289L102.328 79.9605Z" fill="white"/>
<path fill-rule="evenodd" clip-rule="evenodd" d="M117.404 93.9702L109.951 90.181L109.944 92.0643L117.398 95.8546L117.404 93.9702Z" fill="#250F8A"/>
<path fill-rule="evenodd" clip-rule="evenodd" d="M97.7142 40.6085L74.9703 29.0448L74.9481 36.1822L97.6921 47.7469L97.7142 40.6085ZM92.2073 43.4508L92.2213 39.3159L96.3072 41.3942L96.2933 45.5281L92.2073 43.4508ZM86.6806 40.6412L86.6934 36.5052L90.7794 38.5824L90.7666 42.7184L86.6806 40.6412ZM81.1527 37.8295L81.1656 33.6945L85.2515 35.7717L85.2387 39.9067L81.1527 37.8295Z" fill="#FA7564"/>
<path fill-rule="evenodd" clip-rule="evenodd" d="M97.692 47.7468L74.948 36.1821L74.8513 65.9894L97.5953 77.5562L97.692 47.7468ZM76.2071 47.1704L76.2293 40.2084L96.278 50.4037L96.2559 57.3636L76.2071 47.1704ZM76.1523 64.0238L76.1593 62.2379L96.2069 72.4311L96.2011 74.2181L76.1523 64.0238Z" fill="#E5FDFD"/>
<path fill-rule="evenodd" clip-rule="evenodd" d="M154.204 76.4809L102.424 50.1531L102.328 79.9614L154.108 106.29L154.204 76.4809ZM103.84 61.2191L103.862 54.2591L152.758 79.1211L152.736 86.0821L103.84 61.2191ZM103.827 64.793L103.833 63.0061L152.73 87.869L152.724 89.6549L103.827 64.793ZM103.816 68.3709L103.822 66.5851L152.718 91.447L152.712 93.2339L103.816 68.3709ZM103.787 77.1854L103.809 70.2224L152.707 95.0854L152.684 102.046L103.787 77.1854Z" fill="#E5FDFD"/>
<path fill-rule="evenodd" clip-rule="evenodd" d="M154.228 69.3435L102.448 43.0157L102.424 50.1532L154.204 76.4809L154.228 69.3435ZM148.687 72.1693L148.701 68.0344L152.787 70.1116L152.774 74.2465L148.687 72.1693ZM143.16 69.3588L143.173 65.2239L147.259 67.3021L147.245 71.4361L143.16 69.3588ZM137.632 66.5479L137.645 62.412L141.731 64.4902L141.717 68.6252L137.632 66.5479Z" fill="#FA7564"/>
<path fill-rule="evenodd" clip-rule="evenodd" d="M152.787 70.1115L148.701 68.0343L148.687 72.1692L152.774 74.2465L152.787 70.1115Z" fill="#FFCA00"/>
<path fill-rule="evenodd" clip-rule="evenodd" d="M147.259 67.302L143.173 65.2248L143.159 69.3587L147.245 71.4359L147.259 67.302Z" fill="white"/>
<path fill-rule="evenodd" clip-rule="evenodd" d="M141.731 64.4899L137.645 62.4127L137.632 66.5486L141.718 68.6248L141.731 64.4899Z" fill="white"/>
<path fill-rule="evenodd" clip-rule="evenodd" d="M96.3072 41.3937L92.2213 39.3165L92.2073 43.4515L96.2933 45.5277L96.3072 41.3937Z" fill="#FFCA00"/>
<path fill-rule="evenodd" clip-rule="evenodd" d="M90.7798 38.5827L86.6939 36.5055L86.6799 40.6415L90.7659 42.7176L90.7798 38.5827Z" fill="white"/>
<path fill-rule="evenodd" clip-rule="evenodd" d="M85.2518 35.772L81.1647 33.6948L81.1519 37.8297L85.2378 39.9069L85.2518 35.772Z" fill="white"/>
<path fill-rule="evenodd" clip-rule="evenodd" d="M96.2782 50.4035L76.2295 40.2092L76.2073 47.1712L96.2549 57.3634L96.2782 50.4035Z" fill="white"/>
<path fill-rule="evenodd" clip-rule="evenodd" d="M152.758 79.1213L103.862 54.2593L103.839 61.2193L152.735 86.0823L152.758 79.1213Z" fill="white"/>
<path fill-rule="evenodd" clip-rule="evenodd" d="M152.707 95.0851L103.81 70.2231L103.788 77.1851L152.684 102.046L152.707 95.0851Z" fill="white"/>
<path fill-rule="evenodd" clip-rule="evenodd" d="M96.2071 72.4317L76.1595 62.2374L76.1525 64.0243L96.2012 74.2176L96.2071 72.4317Z" fill="#FFCA00"/>
<path fill-rule="evenodd" clip-rule="evenodd" d="M152.73 87.8686L103.834 63.0067L103.827 64.7936L152.724 89.6545L152.73 87.8686Z" fill="#FFCA00"/>
<path fill-rule="evenodd" clip-rule="evenodd" d="M152.718 91.4468L103.822 66.5848L103.816 68.3707L152.713 93.2337L152.718 91.4468Z" fill="#FFCA00"/>
<path fill-rule="evenodd" clip-rule="evenodd" d="M71.0105 66.1291L68.7308 67.1134L68.8751 21.8217L71.1315 22.9715L71.0105 66.1291Z" fill="#172029"/>
<path fill-rule="evenodd" clip-rule="evenodd" d="M158.644 110.797L158.637 112.947L68.7302 67.1131L71.0099 66.1288L158.644 110.797Z" fill="#263442"/>
</svg>
